<svg width="217.36923076923077" height="81" viewBox="0 0 217.36923076923077 81" class="css-1j8o68f"><defs id="SvgjsDefs5226"></defs><g id="SvgjsG5227" featurekey="0LeO0L-0" transform="matrix(5.788120209115983,0,0,5.788120209115983,-0.33903864886661145,-34.76339501901395)" fill="#000000"><path d="M0.058594 6.006 l2.9688 -0.0000095367 c0.019531 0.15625 0.39388 1.9727 1.123 5.4492 l0.61523 0 l0 0.53711 l-0.74219 0 l0 -0.53711 l-1.0449 0 l0 0.53711 l1.0449 0 l0 2.5098 l0.33203 0 l0 1.2988 l0.82031 0 l0 -1.9141 l0.30273 0 l0 -1.8945 l0.5957 0 l0 -0.53711 l-0.46875 0 c0.73567 -3.4766 1.1133 -5.293 1.1328 -5.4492 l2.9688 0 c-1.0742 4.668 -1.6113 7.0476 -1.6113 7.1387 l0 2.4316 l-0.82031 0 l0 0.48828 l0.61523 0 l0 1.4258 l-1.1035 0 l0 2.5098 l-3.4766 0 c-0.039063 0 -0.13347 -0.35808 -0.2832 -1.0742 l0.89844 0 l0 -0.58594 l-1.0059 0 c-0.039063 0 -0.13021 -0.37761 -0.27344 -1.1328 c-0.071611 -0.22786 -0.93424 -3.9616 -2.5879 -11.201 z M6.9434 17.5977 l0.30274 0 c0.084639 0 0.14323 0.048828 0.17578 0.14648 l-0.068359 0.15625 c0.032549 0 0.055332 0.084639 0.06835 0.25391 l-0.097656 0 c-0.032549 0 -0.058594 -0.068359 -0.078125 -0.20508 l-0.17578 0 l0 0.20508 l-0.12695 0 l0 -0.55664 z M7.0703 17.6953 l0 0.12695 l0.15625 0 c0.032549 0 0.048828 -0.016279 0.048828 -0.048828 l0 -0.029297 c0 -0.032549 -0.016279 -0.048828 -0.048828 -0.048828 l-0.15625 0 z M6.9434 18.3594 l0.41016 0 l0 0.078125 c0 0.032549 -0.019531 0.048828 -0.058594 0.048828 l-0.22461 0 l0 0.078125 l0.22461 0 l0 0.12695 l-0.22461 0 l0 0.23438 l-0.12695 0 l0 -0.56641 z M6.9434 19.13085 l0.12695 0 l0 0.56641 l-0.12695 0 l0 -0.56641 z"></path></g><g id="SvgjsG5228" featurekey="pulpyG-0" transform="matrix(2.6034598699586793,0,0,2.6034598699586793,80.47930914329203,7.680973198080075)" fill="#000000"><path d="M5.64 5.5 l2.94 0 l-2.68 14.5 l-3.02 0 l-2.68 -14.5 l2.94 0 l0.26 1.86 l0.98 7.5 l1 -7.54 z M9.379999999999999 5.5 l2.9 0 l0 14.5 l-2.9 0 l0 -14.5 z M16.38 8.04 l0 5 l1.42 0 c0.18666 0 0.28 -0.1 0.28 -0.3 l0 -4.4 c0 -0.2 -0.09334 -0.3 -0.28 -0.3 l-1.42 0 z M20.939999999999998 14.1 c0 0.32 -0.11 0.61334 -0.33 0.88 s-0.54334 0.4 -0.97 0.4 l1.52 4.62 l-3 0 l-1.4 -4.62 l-0.38 0 l0 4.62 l-2.9 0 l0 -14.5 l5.5 0 c0.68 0 1.1767 0.17 1.49 0.51 s0.47 0.79666 0.47 1.37 l0 6.72 z M27.86 5.5 l0.72 2.7 l-1.94 0 l0 11.8 l-2.96 0 l0 -11.8 l-1.94 0 l0.76 -2.7 l5.36 0 z M31.64 20 c-0.84 0 -1.4267 -0.17334 -1.76 -0.52 s-0.5 -0.92 -0.5 -1.72 l0 -12.26 l2.96 0 l0 11.64 c0 0.10666 0.01666 0.18666 0.05 0.24 s0.11 0.08 0.23 0.08 l1.02 0 c0.12 0 0.19666 -0.02666 0.23 -0.08 s0.05 -0.13334 0.05 -0.24 l0 -11.64 l2.96 0 l0 12.26 c0 0.8 -0.16666 1.3733 -0.5 1.72 s-0.92 0.52 -1.76 0.52 l-2.98 0 z M40.720000000000006 18.2 l-0.26 1.8 l-2.92 0 l2.62 -14.5 l3.1 0 l2.62 14.5 l-2.92 0 l-0.26 -1.8 l-1.98 0 z M41.040000000000006 15.9 l1.34 0 l-0.66 -5.14 z M46.68000000000001 5.5 l2.98 0 l0 11.8 l2.92 0 l-0.5 2.7 l-5.4 0 l0 -14.5 z"></path></g></svg>
